<mxfile host="app.diagrams.net" modified="2023-10-21T05:48:15.123Z" agent="Mozilla/5.0 (Windows NT 10.0; Win64; x64) AppleWebKit/537.36 (KHTML, like Gecko) Chrome/118.0.0.0 Safari/537.36" etag="X5Q5EYzL_mxlhxJsD4_X" version="22.0.0" type="device">
  <diagram name="PÃ¡gina-1" id="5vkWipXI4Jd7R3DipBLy">
    <mxGraphModel dx="1195" dy="668" grid="1" gridSize="10" guides="1" tooltips="1" connect="1" arrows="1" fold="1" page="1" pageScale="1" pageWidth="827" pageHeight="1169" math="0" shadow="0">
      <root>
        <mxCell id="0" />
        <mxCell id="1" parent="0" />
        <mxCell id="yecwBfwort3IGkdsRdy6-18" style="edgeStyle=orthogonalEdgeStyle;rounded=0;orthogonalLoop=1;jettySize=auto;html=1;entryX=0.5;entryY=0;entryDx=0;entryDy=0;" edge="1" parent="1" source="yecwBfwort3IGkdsRdy6-1" target="yecwBfwort3IGkdsRdy6-16">
          <mxGeometry relative="1" as="geometry" />
        </mxCell>
        <mxCell id="yecwBfwort3IGkdsRdy6-1" value="Case 5:" style="ellipse;whiteSpace=wrap;html=1;" vertex="1" parent="1">
          <mxGeometry x="162.5" y="50" width="110" height="60" as="geometry" />
        </mxCell>
        <mxCell id="yecwBfwort3IGkdsRdy6-21" style="edgeStyle=orthogonalEdgeStyle;rounded=0;orthogonalLoop=1;jettySize=auto;html=1;entryX=0.5;entryY=0;entryDx=0;entryDy=0;" edge="1" parent="1" source="yecwBfwort3IGkdsRdy6-2" target="yecwBfwort3IGkdsRdy6-19">
          <mxGeometry relative="1" as="geometry" />
        </mxCell>
        <mxCell id="yecwBfwort3IGkdsRdy6-2" value="maxArr(int *arr, int n)" style="ellipse;whiteSpace=wrap;html=1;" vertex="1" parent="1">
          <mxGeometry x="442.5" y="40" width="205" height="70" as="geometry" />
        </mxCell>
        <mxCell id="yecwBfwort3IGkdsRdy6-83" style="edgeStyle=orthogonalEdgeStyle;rounded=0;orthogonalLoop=1;jettySize=auto;html=1;entryX=0.5;entryY=0;entryDx=0;entryDy=0;" edge="1" parent="1" source="yecwBfwort3IGkdsRdy6-6" target="yecwBfwort3IGkdsRdy6-7">
          <mxGeometry relative="1" as="geometry" />
        </mxCell>
        <mxCell id="yecwBfwort3IGkdsRdy6-6" value="&quot;Arreglo 1:&quot;" style="shape=document;whiteSpace=wrap;html=1;boundedLbl=1;" vertex="1" parent="1">
          <mxGeometry x="157.75" y="220" width="120" height="50" as="geometry" />
        </mxCell>
        <mxCell id="yecwBfwort3IGkdsRdy6-86" style="edgeStyle=orthogonalEdgeStyle;rounded=0;orthogonalLoop=1;jettySize=auto;html=1;entryX=0.5;entryY=0;entryDx=0;entryDy=0;" edge="1" parent="1" source="yecwBfwort3IGkdsRdy6-7" target="yecwBfwort3IGkdsRdy6-84">
          <mxGeometry relative="1" as="geometry" />
        </mxCell>
        <mxCell id="yecwBfwort3IGkdsRdy6-7" value="imprArr(vect1, 5)" style="rounded=0;whiteSpace=wrap;html=1;" vertex="1" parent="1">
          <mxGeometry x="157.5" y="299" width="120" height="50" as="geometry" />
        </mxCell>
        <mxCell id="yecwBfwort3IGkdsRdy6-82" style="edgeStyle=orthogonalEdgeStyle;rounded=0;orthogonalLoop=1;jettySize=auto;html=1;entryX=0.5;entryY=0;entryDx=0;entryDy=0;" edge="1" parent="1" source="yecwBfwort3IGkdsRdy6-16" target="yecwBfwort3IGkdsRdy6-6">
          <mxGeometry relative="1" as="geometry" />
        </mxCell>
        <mxCell id="yecwBfwort3IGkdsRdy6-16" value="&lt;div&gt;int vect1[] = {4, 7, 1, 5, 9}&lt;/div&gt;" style="rounded=0;whiteSpace=wrap;html=1;" vertex="1" parent="1">
          <mxGeometry x="133.75" y="140" width="167.5" height="50" as="geometry" />
        </mxCell>
        <mxCell id="yecwBfwort3IGkdsRdy6-23" style="edgeStyle=orthogonalEdgeStyle;rounded=0;orthogonalLoop=1;jettySize=auto;html=1;entryX=0.5;entryY=0;entryDx=0;entryDy=0;" edge="1" parent="1" source="yecwBfwort3IGkdsRdy6-19" target="yecwBfwort3IGkdsRdy6-22">
          <mxGeometry relative="1" as="geometry" />
        </mxCell>
        <mxCell id="yecwBfwort3IGkdsRdy6-19" value="int i,&amp;nbsp;max = arr[0]" style="rounded=0;whiteSpace=wrap;html=1;" vertex="1" parent="1">
          <mxGeometry x="485" y="140" width="120" height="40" as="geometry" />
        </mxCell>
        <mxCell id="yecwBfwort3IGkdsRdy6-25" style="edgeStyle=orthogonalEdgeStyle;rounded=0;orthogonalLoop=1;jettySize=auto;html=1;entryX=0.5;entryY=0;entryDx=0;entryDy=0;" edge="1" parent="1" source="yecwBfwort3IGkdsRdy6-22">
          <mxGeometry relative="1" as="geometry">
            <mxPoint x="544.9999999999998" y="330" as="targetPoint" />
          </mxGeometry>
        </mxCell>
        <mxCell id="yecwBfwort3IGkdsRdy6-49" style="edgeStyle=orthogonalEdgeStyle;rounded=0;orthogonalLoop=1;jettySize=auto;html=1;entryX=0.5;entryY=0;entryDx=0;entryDy=0;" edge="1" parent="1" source="yecwBfwort3IGkdsRdy6-22" target="yecwBfwort3IGkdsRdy6-38">
          <mxGeometry relative="1" as="geometry">
            <Array as="points">
              <mxPoint x="690" y="245" />
              <mxPoint x="690" y="500" />
              <mxPoint x="550" y="500" />
            </Array>
          </mxGeometry>
        </mxCell>
        <mxCell id="yecwBfwort3IGkdsRdy6-22" value="Desde i = 1&lt;br&gt;Mientras i &amp;lt; n&lt;br&gt;Incremento i++" style="shape=hexagon;perimeter=hexagonPerimeter2;whiteSpace=wrap;html=1;fixedSize=1;" vertex="1" parent="1">
          <mxGeometry x="477.5" y="205" width="135" height="80" as="geometry" />
        </mxCell>
        <mxCell id="yecwBfwort3IGkdsRdy6-38" value="return max" style="ellipse;whiteSpace=wrap;html=1;" vertex="1" parent="1">
          <mxGeometry x="507.5" y="532" width="85" height="60" as="geometry" />
        </mxCell>
        <mxCell id="yecwBfwort3IGkdsRdy6-47" style="edgeStyle=orthogonalEdgeStyle;rounded=0;orthogonalLoop=1;jettySize=auto;html=1;entryX=0.5;entryY=0;entryDx=0;entryDy=0;" edge="1" parent="1" source="yecwBfwort3IGkdsRdy6-45">
          <mxGeometry relative="1" as="geometry">
            <mxPoint x="620" y="416" as="targetPoint" />
            <Array as="points">
              <mxPoint x="620" y="375" />
            </Array>
          </mxGeometry>
        </mxCell>
        <mxCell id="yecwBfwort3IGkdsRdy6-48" style="edgeStyle=orthogonalEdgeStyle;rounded=0;orthogonalLoop=1;jettySize=auto;html=1;entryX=0;entryY=0.5;entryDx=0;entryDy=0;" edge="1" parent="1" source="yecwBfwort3IGkdsRdy6-45" target="yecwBfwort3IGkdsRdy6-22">
          <mxGeometry relative="1" as="geometry">
            <Array as="points">
              <mxPoint x="440" y="375" />
              <mxPoint x="440" y="245" />
            </Array>
          </mxGeometry>
        </mxCell>
        <mxCell id="yecwBfwort3IGkdsRdy6-45" value="*(arr + i)&lt;br&gt;&amp;gt;&lt;br&gt;max" style="rhombus;whiteSpace=wrap;html=1;" vertex="1" parent="1">
          <mxGeometry x="487.5" y="330" width="115" height="90" as="geometry" />
        </mxCell>
        <mxCell id="yecwBfwort3IGkdsRdy6-50" value="V" style="text;html=1;strokeColor=none;fillColor=none;align=center;verticalAlign=middle;whiteSpace=wrap;rounded=0;" vertex="1" parent="1">
          <mxGeometry x="577" y="349" width="60" height="30" as="geometry" />
        </mxCell>
        <mxCell id="yecwBfwort3IGkdsRdy6-51" value="F" style="text;html=1;strokeColor=none;fillColor=none;align=center;verticalAlign=middle;whiteSpace=wrap;rounded=0;" vertex="1" parent="1">
          <mxGeometry x="453.5" y="349" width="60" height="30" as="geometry" />
        </mxCell>
        <mxCell id="yecwBfwort3IGkdsRdy6-87" style="edgeStyle=orthogonalEdgeStyle;rounded=0;orthogonalLoop=1;jettySize=auto;html=1;entryX=0.5;entryY=0;entryDx=0;entryDy=0;" edge="1" parent="1" source="yecwBfwort3IGkdsRdy6-84" target="yecwBfwort3IGkdsRdy6-85">
          <mxGeometry relative="1" as="geometry" />
        </mxCell>
        <mxCell id="yecwBfwort3IGkdsRdy6-84" value="r = maxArr(vect1, 5)" style="rounded=0;whiteSpace=wrap;html=1;" vertex="1" parent="1">
          <mxGeometry x="152.5" y="379" width="130" height="50" as="geometry" />
        </mxCell>
        <mxCell id="yecwBfwort3IGkdsRdy6-89" style="edgeStyle=orthogonalEdgeStyle;rounded=0;orthogonalLoop=1;jettySize=auto;html=1;entryX=0.5;entryY=0;entryDx=0;entryDy=0;" edge="1" parent="1" source="yecwBfwort3IGkdsRdy6-85" target="yecwBfwort3IGkdsRdy6-88">
          <mxGeometry relative="1" as="geometry" />
        </mxCell>
        <mxCell id="yecwBfwort3IGkdsRdy6-85" value="&quot;El elemento maximo es: %d\n&quot;, r" style="shape=document;whiteSpace=wrap;html=1;boundedLbl=1;" vertex="1" parent="1">
          <mxGeometry x="122.5" y="460" width="190" height="60" as="geometry" />
        </mxCell>
        <mxCell id="yecwBfwort3IGkdsRdy6-88" value="break" style="ellipse;whiteSpace=wrap;html=1;" vertex="1" parent="1">
          <mxGeometry x="173.44" y="550" width="88.12" height="60" as="geometry" />
        </mxCell>
        <mxCell id="yecwBfwort3IGkdsRdy6-90" value="max = *(arr + i)" style="rounded=0;whiteSpace=wrap;html=1;" vertex="1" parent="1">
          <mxGeometry x="570" y="417" width="100" height="40" as="geometry" />
        </mxCell>
      </root>
    </mxGraphModel>
  </diagram>
</mxfile>
